<svg width="228" height="291" viewBox="0 0 228 291" fill="none" xmlns="http://www.w3.org/2000/svg">
<path d="M228 280C228 282.917 226.841 285.715 224.778 287.778C222.715 289.841 219.917 291 217 291H41C38.0826 291 35.2846 289.841 33.2217 287.778C31.1588 285.715 30 282.917 30 280V192H74V203H96V192H118V203H140V192H162V247H184V192H228V280ZM74 247H96V225H74V247ZM118 247H140V225H118V247Z" fill="#2B7A67"/>
<path d="M217 71C219.917 71 222.715 72.1588 224.778 74.2217C226.841 76.2846 228 79.0826 228 82V192H184V181H162V192H140V181H118V192H96V181H74V192H30V82C30 79.0826 31.1588 76.2846 33.2217 74.2217C35.2846 72.1588 38.0826 71 41 71H217ZM74 159H184V115H74V159Z" fill="black" fill-opacity="0.83"/>
<path d="M2.702 79.0765C2.702 73.4795 3.82783 68.5902 6.0795 64.4085C8.3955 60.2268 11.58 57.0102 15.633 54.7585C19.7503 52.5068 24.4467 51.381 29.722 51.381C36.477 51.381 42.1062 53.1502 46.6095 56.6885C51.1772 60.2268 54.1687 65.2127 55.584 71.646H38.021C36.5413 67.5287 33.6785 65.47 29.4325 65.47C26.4088 65.47 23.9963 66.6602 22.195 69.0405C20.3937 71.3565 19.493 74.7018 19.493 79.0765C19.493 83.4512 20.3937 86.8287 22.195 89.209C23.9963 91.525 26.4088 92.683 29.4325 92.683C33.6785 92.683 36.5413 90.6243 38.021 86.507H55.584C54.1687 92.8117 51.1772 97.7653 46.6095 101.368C42.0418 104.971 36.4127 106.772 29.722 106.772C24.4467 106.772 19.7503 105.646 15.633 103.394C11.58 101.143 8.3955 97.9262 6.0795 93.7445C3.82783 89.5628 2.702 84.6735 2.702 79.0765Z" fill="#2B7A67"/>
</svg>
